<svg width="20" height="20" viewBox="0 0 20 20" fill="none" xmlns="http://www.w3.org/2000/svg">
<path d="M8 6C8 5.44772 8.44772 5 9 5H10C10.5523 5 11 5.44772 11 6V17H8V6Z" fill="#1E1E1E"/>
<path d="M12 6C12 5.44772 12.4477 5 13 5H14C14.5523 5 15 5.44772 15 6V17H12V6Z" fill="#1E1E1E"/>
<path d="M4 6C4 5.44772 4.44772 5 5 5H6C6.55228 5 7 5.44772 7 6V17H4V6Z" fill="#1E1E1E"/>
<path d="M10 13.3333C10 13.7015 9.77614 14 9.5 14C9.22386 14 9 13.7015 9 13.3333C9 12.9651 9.5 12.3333 9.5 12C9.5 12.3333 10 12.9651 10 13.3333Z" fill="white"/>
<path d="M14 13.3333C14 13.7015 13.7761 14 13.5 14C13.2239 14 13 13.7015 13 13.3333C13 12.9651 13.5 12.3333 13.5 12C13.5 12.3333 14 12.9651 14 13.3333Z" fill="white"/>
<path d="M6 13.3333C6 13.7015 5.77614 14 5.5 14C5.22386 14 5 13.7015 5 13.3333C5 12.9651 5.5 12.3333 5.5 12C5.5 12.3333 6 12.9651 6 13.3333Z" fill="white"/>
<rect x="5" y="4" width="1" height="1" fill="#1E1E1E"/>
<rect x="13" y="4" width="1" height="1" fill="#1E1E1E"/>
<rect x="9" y="4" width="1" height="1" fill="#1E1E1E"/>
</svg>
