<svg width="20" height="22" viewBox="0 0 20 22" fill="none" xmlns="http://www.w3.org/2000/svg">
<path d="M7.21815 3.75C7.45613 2.61625 8.48734 1.75 9.7433 1.75C11.1785 1.75 12.3202 2.88115 12.3202 4.25C12.3202 4.52614 12.5441 4.75 12.8203 4.75H19.4869C19.7631 4.75 19.9869 4.52614 19.9869 4.25C19.9869 3.97386 19.7631 3.75 19.4869 3.75H13.2841C13.0357 2.0453 11.5352 0.75 9.7433 0.75C7.95136 0.75 6.45095 2.0453 6.20248 3.75H0.512695C0.236553 3.75 0.0126953 3.97386 0.0126953 4.25C0.0126953 4.52614 0.236553 4.75 0.512695 4.75H10.7691C11.0452 4.75 11.2691 4.52614 11.2691 4.25C11.2691 3.97386 11.0452 3.75 10.7691 3.75H7.21815Z" fill="#757575"/>
<path d="M17.6922 6.75L16.2487 20.3555C16.1947 20.8641 15.7657 21.25 15.2543 21.25H4.74559C4.23415 21.25 3.80513 20.8641 3.75117 20.3555L2.30762 6.75M6.03178 8.75159L6.24977 15.7482M9.73069 9.25V16.25M13.4294 8.75159L13.2117 15.7482" stroke="#757575" stroke-linecap="round"/>
</svg>
