<svg width="28" height="28" viewBox="0 0 28 28" fill="none" xmlns="http://www.w3.org/2000/svg">
<path d="M8.93433 8.20167C9.06383 8.1795 9.198 8.16667 9.33333 8.16667H18.6667C18.8078 8.16667 18.9373 8.17133 19.0703 8.19583L14.7397 12.5265C14.3418 12.922 13.6547 12.9197 13.2592 12.5265L8.93317 8.2005L8.93433 8.20167ZM17.2142 15.0022C16.3567 15.8608 15.2145 16.3345 14 16.3345C12.7855 16.3345 11.6433 15.862 10.7847 15.0033L7 11.2175V18.6678L20.9918 18.6597V11.2245L17.2142 15.0022ZM28 14.0012C28 6.28017 21.7198 0 14 0C6.28017 0 0 6.28017 0 14C0 21.7198 6.28017 28 14 28C21.7198 28 28 21.7198 28 14V14.0012ZM24.5 14.0012C24.5 19.7902 19.7902 24.5012 14 24.5012C8.20983 24.5012 3.5 19.789 3.5 14C3.5 8.211 8.20983 3.5 14 3.5C19.7902 3.5 24.5 8.211 24.5 14V14.0012Z" fill="black"/>
</svg>
