<svg width="28" height="28" viewBox="0 0 28 28" fill="none" xmlns="http://www.w3.org/2000/svg">
<path d="M14 28C6.28017 28 0 21.7198 0 14C0 6.28017 6.28017 0 14 0C21.7198 0 28 6.28017 28 14C28 21.7198 21.7198 28 14 28ZM14 3.5C8.20983 3.5 3.5 8.211 3.5 14C3.5 19.789 8.20983 24.5 14 24.5C19.7902 24.5 24.5 19.789 24.5 14C24.5 8.211 19.7902 3.5 14 3.5ZM17.836 15.3008L15.7652 17.3717C13.4003 16.4698 11.6573 14.7957 10.6283 12.2348L12.6992 10.164L9.53517 7L7.9275 8.60767C7.2975 9.2365 7 10.0648 7 10.8908C7 15.4572 12.8707 21.0012 17.1103 21.0012C17.9363 21.0012 18.7647 20.7025 19.3935 20.0737L21.0012 18.466L17.8372 15.302L17.836 15.3008Z" fill="black"/>
</svg>
