<svg width="20" height="20" viewBox="0 0 20 20" fill="none" xmlns="http://www.w3.org/2000/svg">
<path d="M2.5 12.5H17.5V15C17.5 15.8284 16.8284 16.5 16 16.5H4C3.17157 16.5 2.5 15.8284 2.5 15V12.5Z" fill="white" stroke="black"/>
<path d="M14 12.5V8.5" stroke="black" stroke-linecap="round"/>
<path d="M6 12.5V8.5" stroke="black" stroke-linecap="round"/>
<circle cx="4.5" cy="14.5" r="0.5" fill="black"/>
<circle cx="6.5" cy="14.5" r="0.5" fill="black"/>
<path d="M2.5 7C2.5 6.16667 3 4.5 5 4.5" stroke="black" stroke-linecap="round"/>
<path d="M14.2812 4.5C15.1146 4.5 16.7813 5 16.7813 7" stroke="black" stroke-linecap="round"/>
<path d="M4 7C4 6.66667 4.2 6 5 6" stroke="black" stroke-linecap="round"/>
<path d="M14.2812 6C14.6146 6 15.2813 6.2 15.2813 7" stroke="black" stroke-linecap="round"/>
</svg>
